<svg width="129" height="130" viewBox="0 0 129 130" fill="none" xmlns="http://www.w3.org/2000/svg">
<path d="M1.65713 126.569C1.65691 126.569 1.65669 126.569 1.65647 126.569L2.00148 127.402L1.65713 126.569ZM1.65713 126.569C1.66267 126.584 1.70455 126.685 2.00148 127.402M1.65713 126.569L2.00148 127.402M2.00148 127.402C2.01338 127.431 2.02568 127.46 2.0384 127.491L2.00148 127.402ZM21.8333 63.5499C20.8813 63.2438 20.8812 63.244 20.8811 63.2445L20.8803 63.2468L20.8775 63.2556L20.8662 63.2909L20.8215 63.4299L20.6474 63.972C20.4949 64.4467 20.2714 65.1429 19.9874 66.0285C19.4194 67.7998 18.6091 70.3291 17.6401 73.3615C15.7021 79.4261 13.1288 87.5035 10.5883 95.5533C8.04809 103.602 5.53953 111.627 3.73132 117.585C2.82765 120.563 2.09672 123.032 1.62398 124.731C1.38861 125.577 1.21258 126.249 1.11158 126.702C1.06371 126.917 1.02173 127.129 1.00675 127.297C1.00267 127.342 0.998837 127.403 1.00033 127.469C1.00147 127.52 1.00617 127.65 1.0562 127.801C1.09414 127.915 1.27897 128.382 1.83967 128.484C2.10758 128.532 2.32578 128.467 2.47429 128.393L2.47924 128.391L2.65018 128.32L3.31648 128.043C3.90002 127.8 4.75575 127.444 5.8448 126.99C8.02287 126.082 11.1342 124.782 14.8678 123.214C22.3348 120.076 32.2916 115.865 42.2492 111.569C52.205 107.275 62.1691 102.892 69.6475 99.4134C73.3843 97.6751 76.5146 96.156 78.7165 94.983C79.8137 94.3985 80.7039 93.8876 81.329 93.4701C81.6377 93.2639 81.9139 93.0595 82.1236 92.8627C82.2276 92.7652 82.3427 92.6443 82.4385 92.5027C82.5228 92.378 82.6679 92.1279 82.6679 91.7944C82.6679 91.2242 82.3381 90.8043 82.0763 90.5515C81.7964 90.2812 81.4333 90.0452 81.0477 89.8361C80.2696 89.4141 79.202 88.9978 77.9781 88.5948C75.5169 87.7845 72.2442 86.9709 68.9484 86.2526C65.6463 85.5329 62.2936 84.903 59.6598 84.4625C58.3434 84.2423 57.2009 84.0686 56.3308 83.9545C55.8965 83.8975 55.5229 83.8545 55.2261 83.8281C54.9591 83.8045 54.6738 83.786 54.4648 83.806C54.3315 83.8188 53.9363 83.8622 53.6339 84.1783C53.4485 84.3721 53.3416 84.6245 53.3309 84.8916C53.3214 85.1305 53.3907 85.3217 53.4459 85.4384C53.5499 85.6583 53.7078 85.8276 53.8082 85.9279C53.9249 86.0444 54.0609 86.1606 54.1986 86.2714C54.4818 86.4992 54.8979 86.7994 55.3494 87.125C55.6993 87.3774 56.0704 87.6451 56.4171 87.9062C57.2743 88.5516 58.1268 89.2563 58.754 89.9751C59.3167 90.62 59.5925 91.157 59.6492 91.5816C59.5737 91.6538 59.4546 91.7531 59.2781 91.8792C58.8203 92.2064 58.1149 92.6172 57.1662 93.1072C55.2777 94.0826 52.5601 95.3031 49.2594 96.7135C45.8476 98.1712 41.8675 99.8091 37.5836 101.572C33.9124 103.083 30.0181 104.685 26.0673 106.345C26.0495 106.079 26.0407 105.779 26.0424 105.442C26.0471 104.511 26.1312 103.371 26.2902 102.044C26.6082 99.3909 27.2178 96.0545 28.0447 92.268C29.6978 84.6986 32.2037 75.401 34.9241 66.3122C37.6444 57.2241 40.5735 48.3638 43.0693 41.6704C44.3182 38.3209 45.4522 35.5313 46.3923 33.532C46.8636 32.5298 47.2754 31.7493 47.6189 31.2031C47.791 30.9294 47.9333 30.7349 48.0446 30.607C48.0552 30.5949 48.0651 30.5838 48.0743 30.5737C48.187 30.606 48.3508 30.6683 48.5723 30.7765C49.1025 31.0355 49.8198 31.4855 50.7144 32.1296C52.4954 33.4116 54.8532 35.3701 57.6047 37.8284C63.1012 42.739 70.093 49.5752 77.0424 56.801C83.9915 64.0266 90.883 71.6262 96.1816 78.0614C98.8319 81.2801 101.073 84.1951 102.722 86.6187C104.399 89.0846 105.376 90.9209 105.629 92.019C105.862 93.0264 105.665 94.3025 104.988 95.8502C104.316 97.3873 103.213 99.0931 101.783 100.904C98.9252 104.523 94.8709 108.427 90.7113 112.056C86.559 115.679 82.3364 118.999 79.1612 121.452C78.5168 121.95 77.913 122.414 77.3614 122.839C76.56 123.455 75.8689 123.986 75.3235 124.413C74.8638 124.773 74.49 125.072 74.2322 125.295C74.1072 125.402 73.9857 125.512 73.8914 125.612C73.8491 125.657 73.7767 125.737 73.7129 125.838C73.6826 125.885 73.6237 125.985 73.5845 126.12C73.5488 126.244 73.4862 126.55 73.6606 126.881C73.9036 127.342 74.3568 127.404 74.4252 127.414L74.4259 127.414C74.5578 127.432 74.6669 127.421 74.7138 127.416C74.8206 127.403 74.922 127.377 74.9909 127.358C75.1419 127.317 75.3325 127.252 75.5448 127.175C75.9774 127.017 76.5882 126.773 77.3439 126.458C78.8592 125.824 80.9977 124.885 83.5432 123.719C88.6349 121.387 95.3763 118.142 102.05 114.62C108.717 111.103 115.348 107.294 120.203 103.834C122.624 102.107 124.648 100.437 126.014 98.9056C126.697 98.1401 127.247 97.3744 127.593 96.6216C127.939 95.8687 128.112 95.0566 127.922 94.2536C127.755 93.5479 127.229 92.6041 126.538 91.5474C125.82 90.4493 124.837 89.1032 123.635 87.5537C121.228 84.4527 117.906 80.4873 113.984 75.9747C106.138 66.9469 95.8572 55.6892 85.6181 44.6975C75.3778 33.7045 65.1735 22.9712 57.4786 14.99C53.6313 10.9997 50.4094 7.69527 48.1228 5.3894C46.9803 4.23723 46.0673 3.33034 45.4252 2.71072C45.1055 2.40222 44.8452 2.15745 44.6542 1.98731C44.5609 1.90412 44.4704 1.82649 44.3913 1.76552C44.3542 1.73692 44.2987 1.69557 44.2346 1.657C44.2038 1.6384 44.1477 1.60624 44.0754 1.57679L44.0738 1.57616C44.0291 1.55795 43.8405 1.48107 43.5918 1.50443C43.2483 1.53671 43.0357 1.73138 42.9884 1.77463L42.9877 1.77527C42.9097 1.84671 42.8552 1.91749 42.8255 1.9581C42.7632 2.0435 42.7109 2.1352 42.6718 2.20784C42.5893 2.36111 42.4948 2.56351 42.3927 2.79565C42.1858 3.26648 41.9124 3.94139 41.585 4.78193C40.9287 6.46702 40.0377 8.86342 38.9941 11.7285C36.906 17.4609 34.1979 25.0941 31.5161 32.7214C28.834 40.3496 26.177 47.9751 24.1906 53.6933C23.1974 56.5524 22.3718 58.9349 21.7945 60.6026C21.5058 61.4365 21.2792 62.0916 21.1248 62.5384L20.9485 63.0484L20.9034 63.1793L20.8919 63.2124L20.889 63.2207L20.8883 63.2228C20.8881 63.2233 20.8881 63.2235 21.8333 63.5499ZM21.8333 63.5499L20.8881 63.2235L20.8846 63.2336L20.8813 63.2438L21.8333 63.5499ZM75.347 126.984C75.3471 126.984 75.3471 126.984 75.3471 126.984L75.347 126.984ZM55.1917 84.4808C55.1917 84.4807 55.1932 84.4824 55.196 84.486C55.1931 84.4827 55.1917 84.481 55.1917 84.4808ZM59.7402 91.4808C59.7407 91.4808 59.7377 91.4858 59.7297 91.4959C59.7357 91.4859 59.7397 91.4808 59.7402 91.4808ZM47.9453 30.5469C47.9451 30.5468 47.948 30.5468 47.9541 30.5474C47.9485 30.5474 47.9455 30.5471 47.9453 30.5469Z" fill="#15B79E" stroke="#15B79E" stroke-width="2" stroke-linecap="round"/>
</svg>
